<svg width="36" height="31" viewBox="0 0 36 31" fill="none" xmlns="http://www.w3.org/2000/svg">
<path d="M24.7422 28.6172C24.8047 28.7422 24.8359 28.8594 24.8359 28.9688C24.8359 29.2031 24.7031 29.3516 24.4375 29.4141C24.1719 29.4766 23.8594 29.5156 23.5 29.5312C23.1406 29.5312 22.7812 29.5312 22.4219 29.5312C22.0625 29.5312 21.7812 29.5781 21.5781 29.6719C21.5469 29.6875 21.4609 29.7266 21.3203 29.7891C21.1797 29.8516 21.0234 29.9219 20.8516 30C20.6797 30.0781 20.5234 30.1484 20.3828 30.2109C20.2578 30.2891 20.1953 30.3359 20.1953 30.3516H20.1484C19.9922 30.3516 19.7891 30.2969 19.5391 30.1875C19.2891 30.0781 19.0078 30.0234 18.6953 30.0234C18.4609 30.0234 18.1797 30.0781 17.8516 30.1875C17.5391 30.2969 17.2109 30.3516 16.8672 30.3516C16.5078 30.3516 16.2031 30.2734 15.9531 30.1172C15.7188 29.9766 15.6016 29.8203 15.6016 29.6484C15.6016 29.3984 15.7422 29.25 16.0234 29.2031C16.3047 29.1562 16.6172 29.1328 16.9609 29.1328H17.3359C17.5391 29.1328 17.7031 29.1406 17.8281 29.1562C17.9688 29.1562 18.0781 29.125 18.1562 29.0625C18.2344 29 18.2891 28.8906 18.3203 28.7344C18.3516 28.5625 18.3672 28.3047 18.3672 27.9609C18.3672 27.6953 18.3594 27.4219 18.3438 27.1406C18.3281 26.8594 18.3047 26.5938 18.2734 26.3438C18.2422 26.125 18.1797 25.9062 18.0859 25.6875C17.9922 25.4688 17.9297 25.2734 17.8984 25.1016C17.8672 24.9141 17.8516 24.6875 17.8516 24.4219C17.8516 24.1406 17.8359 23.875 17.8047 23.625C17.7734 23.3594 17.7109 23.1406 17.6172 22.9688C17.5234 22.7812 17.3672 22.6875 17.1484 22.6875C17.0234 22.6875 16.8672 22.7031 16.6797 22.7344C16.4922 22.7656 16.2656 22.7969 16 22.8281C15.2031 22.9062 14.4062 22.9609 13.6094 22.9922C12.8125 23.0234 11.9688 23.0938 11.0781 23.2031C10.3594 23.2969 9.78125 23.375 9.34375 23.4375C8.90625 23.5 8.53125 23.6406 8.21875 23.8594C7.90625 24.0781 7.625 24.4297 7.375 24.9141C7.14062 25.3984 6.86719 26.1094 6.55469 27.0469C6.52344 27.125 6.4375 27.2422 6.29688 27.3984C6.17188 27.5547 6.10938 27.7422 6.10938 27.9609C6.10938 28.1953 6.20312 28.3672 6.39062 28.4766C6.57812 28.5859 6.79688 28.6719 7.04688 28.7344C7.3125 28.7812 7.57031 28.8281 7.82031 28.875C8.08594 28.9219 8.29688 29.0078 8.45312 29.1328C8.45312 29.3828 8.30469 29.5781 8.00781 29.7188C7.71094 29.8594 7.35156 29.9688 6.92969 30.0469C6.52344 30.125 6.10156 30.1797 5.66406 30.2109C5.24219 30.2578 4.89062 30.3047 4.60938 30.3516C4.5625 30.3672 4.41406 30.3984 4.16406 30.4453C3.91406 30.5078 3.61719 30.5703 3.27344 30.6328C2.94531 30.7109 2.59375 30.7734 2.21875 30.8203C1.85938 30.8828 1.53125 30.9141 1.23438 30.9141C0.953125 30.9141 0.734375 30.8828 0.578125 30.8203C0.421875 30.7578 0.34375 30.6406 0.34375 30.4688C0.34375 30.1094 0.453125 29.8594 0.671875 29.7188C0.890625 29.5625 1.14062 29.4609 1.42188 29.4141C1.71875 29.3672 2 29.3516 2.26562 29.3672C2.54688 29.3672 2.75 29.3438 2.875 29.2969C2.90625 29.2812 2.96875 29.25 3.0625 29.2031C3.15625 29.1406 3.25 29.0781 3.34375 29.0156C3.45312 28.9375 3.54688 28.8594 3.625 28.7812C3.70312 28.7031 3.74219 28.6406 3.74219 28.5938C3.74219 28.5625 3.73438 28.5234 3.71875 28.4766C3.71875 28.4297 3.71875 28.3906 3.71875 28.3594C3.71875 28.2969 3.77344 28.2188 3.88281 28.125C3.99219 28.0312 4.11719 27.9375 4.25781 27.8438C4.39844 27.7344 4.52344 27.6328 4.63281 27.5391C4.74219 27.4453 4.79688 27.375 4.79688 27.3281C4.79688 27.2969 4.78906 27.2578 4.77344 27.2109C4.75781 27.1641 4.75 27.125 4.75 27.0938C4.76562 27.0625 4.77344 27.0469 4.77344 27.0469C4.83594 26.9844 4.90625 26.8828 4.98438 26.7422C5.0625 26.5859 5.13281 26.4141 5.19531 26.2266C5.27344 26.0391 5.35156 25.8516 5.42969 25.6641C5.50781 25.4609 5.58594 25.2734 5.66406 25.1016C5.78906 24.8203 5.9375 24.5547 6.10938 24.3047C6.28125 24.0547 6.42969 23.7969 6.55469 23.5312C6.86719 22.9219 7.15625 22.2891 7.42188 21.6328C7.70312 20.9766 8.04688 20.3281 8.45312 19.6875C8.53125 19.5625 8.59375 19.4766 8.64062 19.4297C8.6875 19.3672 8.74219 19.2188 8.80469 18.9844C8.83594 18.8438 8.92969 18.6797 9.08594 18.4922C9.25781 18.2891 9.34375 18.1016 9.34375 17.9297C9.34375 17.8828 9.33594 17.8359 9.32031 17.7891C9.32031 17.7422 9.32031 17.6953 9.32031 17.6484C9.32031 17.6641 9.36719 17.5625 9.46094 17.3438C9.57031 17.125 9.70312 16.8516 9.85938 16.5234C10.0312 16.1953 10.2031 15.8438 10.375 15.4688C10.5625 15.0781 10.7422 14.7344 10.9141 14.4375V14.3906C10.9141 14.3594 10.9062 14.3203 10.8906 14.2734C10.8906 14.2109 10.8906 14.1641 10.8906 14.1328C10.8906 14.1172 10.8984 14.1016 10.9141 14.0859C11.0234 14.0078 11.0781 13.875 11.0781 13.6875C11.0938 13.4844 11.1562 13.2656 11.2656 13.0312C11.2969 12.9531 11.375 12.875 11.5 12.7969C11.6406 12.7031 11.7422 12.6094 11.8047 12.5156C11.8672 12.375 11.8906 12.25 11.875 12.1406C11.875 12.0312 11.9062 11.9219 11.9688 11.8125C12.0156 11.7188 12.1172 11.5312 12.2734 11.25C12.4297 10.9688 12.6016 10.6484 12.7891 10.2891C12.9766 9.91406 13.1562 9.52344 13.3281 9.11719C13.5 8.71094 13.625 8.32812 13.7031 7.96875C13.5938 7.89062 13.5078 7.85156 13.4453 7.85156C13.3516 7.85156 13.2578 7.88281 13.1641 7.94531C13.0703 8.00781 12.9688 8.08594 12.8594 8.17969C12.75 8.25781 12.6406 8.32812 12.5312 8.39062C12.4219 8.45312 12.3125 8.48438 12.2031 8.48438C12.125 8.48438 12.0234 8.45312 11.8984 8.39062C11.7891 8.32812 11.7344 8.21875 11.7344 8.0625C11.7344 7.96875 11.7656 7.88281 11.8281 7.80469C11.9062 7.72656 11.9922 7.65625 12.0859 7.59375C12.1797 7.51562 12.2656 7.4375 12.3438 7.35938C12.4219 7.28125 12.4688 7.1875 12.4844 7.07812C12.5 6.92188 12.6016 6.77344 12.7891 6.63281C12.9766 6.49219 13.1797 6.36719 13.3984 6.25781C13.6172 6.14844 13.8125 6.05469 13.9844 5.97656C14.1562 5.89844 14.2422 5.84375 14.2422 5.8125C14.2422 5.78125 14.2344 5.75 14.2188 5.71875C14.2188 5.67188 14.2188 5.625 14.2188 5.57812C14.2188 5.5 14.2969 5.44531 14.4531 5.41406C14.625 5.36719 14.7891 5.28125 14.9453 5.15625C15.0859 5.03125 15.2188 4.89844 15.3438 4.75781C15.4688 4.60156 15.5703 4.5 15.6484 4.45312C15.8203 4.375 15.9922 4.35156 16.1641 4.38281C16.3516 4.39844 16.5234 4.36719 16.6797 4.28906C16.7734 4.24219 16.8516 4.14062 16.9141 3.98438C16.9922 3.82812 17.1406 3.75 17.3594 3.75C17.5781 3.75 17.7266 3.76562 17.8047 3.79688C17.8984 3.82812 17.9531 3.88281 17.9688 3.96094C18 4.02344 18.0156 4.11719 18.0156 4.24219C18.0156 4.35156 18.0391 4.48438 18.0859 4.64062C18.1016 4.6875 18.1406 4.76562 18.2031 4.875C18.2812 4.96875 18.3594 5.07031 18.4375 5.17969C18.5156 5.28906 18.5859 5.40625 18.6484 5.53125C18.7266 5.65625 18.7734 5.76562 18.7891 5.85938C18.8203 6.04688 18.8359 6.29688 18.8359 6.60938C18.8516 6.90625 18.8594 7.22656 18.8594 7.57031C18.8594 7.89844 18.8594 8.22656 18.8594 8.55469C18.875 8.86719 18.9062 9.13281 18.9531 9.35156C19 9.61719 19.0469 9.85156 19.0938 10.0547C19.1406 10.2422 19.1641 10.4609 19.1641 10.7109C19.1641 10.8984 19.1406 11.0312 19.0938 11.1094C19.0469 11.1719 19.0234 11.2344 19.0234 11.2969C19.0234 11.3281 19.0469 11.4609 19.0938 11.6953C19.1406 11.9297 19.2109 12.2031 19.3047 12.5156C19.4766 12.875 19.6094 13.2812 19.7031 13.7344C19.7969 14.1719 19.8672 14.625 19.9141 15.0938C19.9766 15.5625 20.0234 16.0312 20.0547 16.5C20.1016 16.9531 20.1484 17.375 20.1953 17.7656C20.2266 18.0312 20.2891 18.2891 20.3828 18.5391C20.4766 18.7734 20.5312 19.0156 20.5469 19.2656C20.5469 19.375 20.5391 19.4844 20.5234 19.5938C20.5078 19.6875 20.5 19.7812 20.5 19.875C20.5 20.0781 20.5547 20.2891 20.6641 20.5078C20.7891 20.7109 20.8672 20.9062 20.8984 21.0938C20.9453 21.5469 20.9609 22.0391 20.9453 22.5703C20.9297 23.0859 20.9688 23.5781 21.0625 24.0469C21.1094 24.2812 21.1797 24.5078 21.2734 24.7266C21.3828 24.9297 21.4375 25.1719 21.4375 25.4531C21.4375 25.6094 21.4297 25.7656 21.4141 25.9219C21.3984 26.0781 21.3906 26.2266 21.3906 26.3672C21.3906 26.5078 21.3984 26.6094 21.4141 26.6719C21.4141 26.7188 21.4453 26.8359 21.5078 27.0234C21.5703 27.1953 21.6406 27.3906 21.7188 27.6094C21.8125 27.8125 21.8906 28 21.9531 28.1719C22.0312 28.3438 22.0859 28.4375 22.1172 28.4531C22.2266 28.5312 22.4062 28.5703 22.6562 28.5703C22.9062 28.5703 23.1719 28.5391 23.4531 28.4766C23.75 28.4141 24.0078 28.3828 24.2266 28.3828C24.4922 28.3828 24.6641 28.4609 24.7422 28.6172ZM17.2188 20.7422C17.2656 20.6797 17.2891 20.6016 17.2891 20.5078C17.2891 20.3516 17.25 20.2031 17.1719 20.0625C17.0938 19.9062 17.0547 19.8359 17.0547 19.8516C17.0547 19.8203 17.0781 19.7891 17.125 19.7578C17.1875 19.7266 17.2188 19.6484 17.2188 19.5234C17.1875 19.2891 17.125 19.0547 17.0312 18.8203C16.9531 18.5703 16.8984 18.3359 16.8672 18.1172C16.7578 17.4766 16.6641 16.8516 16.5859 16.2422C16.5234 15.6328 16.4375 15.1484 16.3281 14.7891V14.2734C16.2969 14.0078 16.2656 13.6797 16.2344 13.2891C16.2031 12.8984 16.1641 12.4922 16.1172 12.0703C16.0703 11.6328 16.0156 11.2031 15.9531 10.7812C15.9062 10.3438 15.8438 9.96094 15.7656 9.63281C15.7031 9.28906 15.6328 9.01562 15.5547 8.8125C15.4766 8.59375 15.3984 8.48438 15.3203 8.48438H15.2734C15.0703 8.75 14.8984 9.03906 14.7578 9.35156C14.6172 9.64844 14.4766 9.96094 14.3359 10.2891C14.2109 10.6016 14.0859 10.9219 13.9609 11.25C13.8359 11.5625 13.6953 11.8672 13.5391 12.1641C13.2734 12.6641 12.9766 13.1562 12.6484 13.6406C12.3359 14.125 12.0547 14.625 11.8047 15.1406C11.5391 15.6719 11.2969 16.2266 11.0781 16.8047C10.875 17.3672 10.6484 17.9219 10.3984 18.4688C10.1328 19.0156 9.85156 19.5547 9.55469 20.0859C9.25781 20.6172 9.07031 21.1875 8.99219 21.7969C10.0234 21.7969 11.0625 21.7109 12.1094 21.5391C13.1719 21.3672 14.1719 21.2188 15.1094 21.0938C15.3125 21.0625 15.5234 21.0469 15.7422 21.0469C15.9609 21.0469 16.1641 21.0469 16.3516 21.0469C16.5391 21.0312 16.7031 21.0078 16.8438 20.9766C17 20.9297 17.125 20.8516 17.2188 20.7422ZM34.7969 24.1875C34.8594 24.3281 34.8906 24.4766 34.8906 24.6328C34.8906 24.7891 34.8516 24.9297 34.7734 25.0547C34.7109 25.1641 34.625 25.2734 34.5156 25.3828C34.4219 25.4766 34.3125 25.5703 34.1875 25.6641C34.0781 25.7422 33.9844 25.8281 33.9062 25.9219C33.875 25.9844 33.8516 26.0781 33.8359 26.2031C33.8359 26.3125 33.8047 26.3984 33.7422 26.4609C33.5547 26.6641 33.3203 26.8359 33.0391 26.9766C32.7734 27.1172 32.5391 27.2969 32.3359 27.5156C32.2109 27.6562 32.1172 27.7969 32.0547 27.9375C31.9922 28.0625 31.8516 28.2109 31.6328 28.3828C31.4609 28.5078 31.2969 28.6797 31.1406 28.8984C30.9844 29.1172 30.8125 29.3359 30.625 29.5547C30.4375 29.7578 30.2188 29.9375 29.9688 30.0938C29.7188 30.2656 29.4219 30.3516 29.0781 30.3516C29 30.3516 28.9297 30.3438 28.8672 30.3281C28.8047 30.3281 28.7344 30.3203 28.6562 30.3047C28.6562 30.3047 28.6016 30.2734 28.4922 30.2109C28.3828 30.1484 28.2578 30.0234 28.1172 29.8359C27.9922 29.6484 27.875 29.3828 27.7656 29.0391C27.6562 28.6953 27.6016 28.2422 27.6016 27.6797C27.6016 27.5391 27.625 27.3906 27.6719 27.2344C27.7344 27.0625 27.7969 26.8984 27.8594 26.7422C27.9375 26.5859 28 26.4297 28.0469 26.2734C28.1094 26.1016 28.1406 25.9453 28.1406 25.8047C28.1406 25.6641 28.1094 25.5312 28.0469 25.4062C27.9844 25.2812 27.9531 25.1484 27.9531 25.0078C27.9531 24.8672 28.0156 24.7734 28.1406 24.7266C28.2656 24.6641 28.3281 24.5547 28.3281 24.3984C28.3281 24.3203 28.3203 24.25 28.3047 24.1875C28.3047 24.125 28.3047 24.0547 28.3047 23.9766C28.3047 23.7891 28.3359 23.6641 28.3984 23.6016C28.4609 23.5234 28.4922 23.4219 28.4922 23.2969C28.4922 23.1875 28.4688 23.1094 28.4219 23.0625C28.3906 23 28.375 22.9219 28.375 22.8281C28.375 22.7188 28.4141 22.6172 28.4922 22.5234C28.5703 22.4141 28.625 22.2656 28.6562 22.0781C28.7656 21.7188 28.8516 21.2969 28.9141 20.8125C28.9766 20.3125 29.0469 19.7812 29.125 19.2188C29.2188 18.6406 29.3203 18.0312 29.4297 17.3906C29.5391 16.7344 29.6953 16.0781 29.8984 15.4219C29.9609 15.2031 30.0234 14.8906 30.0859 14.4844C30.1641 14.0625 30.2109 13.625 30.2266 13.1719C30.1484 13.125 30.0938 13.1016 30.0625 13.1016C29.9375 13.1016 29.8438 13.2031 29.7812 13.4062C29.7344 13.6094 29.6562 13.7578 29.5469 13.8516C29.4688 13.9141 29.375 13.9453 29.2656 13.9453C29.1719 13.9453 29.0859 13.9688 29.0078 14.0156C28.9141 14.0938 28.8359 14.1875 28.7734 14.2969C28.7266 14.3906 28.6719 14.4844 28.6094 14.5781C28.5625 14.6719 28.4922 14.7656 28.3984 14.8594C28.3047 14.9531 28.1641 15.0234 27.9766 15.0703C27.9453 15.0859 27.9297 15.125 27.9297 15.1875C27.9297 15.2344 27.8984 15.2578 27.8359 15.2578H27.7891C27.7891 15.2109 27.75 15.1719 27.6719 15.1406C27.6094 15.0938 27.5312 15.0469 27.4375 15C27.3438 14.9531 27.2578 14.8984 27.1797 14.8359C27.1172 14.7734 27.0859 14.6953 27.0859 14.6016C27.0859 14.4609 27.1172 14.3516 27.1797 14.2734C27.2422 14.1953 27.3281 14.1328 27.4375 14.0859C27.5469 14.0391 27.6562 13.9922 27.7656 13.9453C27.8906 13.8828 28.0156 13.7969 28.1406 13.6875C28.2969 13.5312 28.4688 13.3516 28.6562 13.1484C28.8594 12.9453 29.0625 12.7422 29.2656 12.5391C29.4688 12.3203 29.6797 12.1172 29.8984 11.9297C30.1328 11.7266 30.3672 11.5469 30.6016 11.3906C30.6484 11.3594 30.6562 11.3281 30.625 11.2969C30.6094 11.2656 30.6562 11.2422 30.7656 11.2266C30.8125 11.2266 30.875 11.2031 30.9531 11.1562C31.0469 11.0938 31.1328 11.0312 31.2109 10.9688C31.3047 10.8906 31.3828 10.8281 31.4453 10.7812C31.5078 10.7188 31.5469 10.6875 31.5625 10.6875C31.5938 10.6875 31.625 10.6953 31.6562 10.7109C31.7031 10.7109 31.7422 10.7109 31.7734 10.7109C31.8984 10.7109 32.0391 10.6797 32.1953 10.6172C32.3672 10.5391 32.6719 10.5 33.1094 10.5C33.2812 10.5 33.4297 10.5547 33.5547 10.6641C33.6953 10.7578 33.7656 10.9609 33.7656 11.2734C33.7656 11.3672 33.7266 11.5156 33.6484 11.7188C33.5703 11.9219 33.4844 12.1641 33.3906 12.4453C33.2969 12.7266 33.2109 13.0391 33.1328 13.3828C33.0547 13.7266 33.0156 14.0859 33.0156 14.4609C33.0156 14.6172 33.0234 14.7812 33.0391 14.9531C33.0547 15.1094 33.0625 15.2656 33.0625 15.4219C33.0625 15.7031 33.0078 15.9453 32.8984 16.1484C32.8047 16.3359 32.7344 16.5625 32.6875 16.8281C32.625 17.1562 32.5938 17.5 32.5938 17.8594C32.5938 18.2188 32.5703 18.5781 32.5234 18.9375C32.3984 19.6875 32.25 20.4141 32.0781 21.1172C31.9062 21.8203 31.7578 22.5469 31.6328 23.2969C31.5859 23.5469 31.5078 23.8672 31.3984 24.2578C31.3047 24.6484 31.2578 25.0625 31.2578 25.5C31.2578 25.9062 31.3281 26.2812 31.4688 26.625C31.7031 26.6094 31.8984 26.5391 32.0547 26.4141C32.2109 26.2891 32.3516 26.1484 32.4766 25.9922C32.6016 25.8359 32.7188 25.6719 32.8281 25.5C32.9531 25.3281 33.0859 25.1797 33.2266 25.0547C33.3203 24.9766 33.4531 24.9219 33.625 24.8906C33.8125 24.8438 33.9688 24.7812 34.0938 24.7031C34.2188 24.625 34.3047 24.5156 34.3516 24.375C34.3984 24.2344 34.5 24.1641 34.6562 24.1641C34.6875 24.1641 34.7109 24.1719 34.7266 24.1875C34.7422 24.1875 34.7656 24.1875 34.7969 24.1875ZM35.6641 0.5625C35.7109 0.65625 35.7344 0.757812 35.7344 0.867188C35.7344 1.05469 35.6719 1.25781 35.5469 1.47656C35.4219 1.69531 35.2812 1.90625 35.125 2.10938C34.9844 2.3125 34.8438 2.5 34.7031 2.67188C34.5625 2.82812 34.4766 2.9375 34.4453 3C34.3516 3.20312 34.2734 3.47656 34.2109 3.82031C34.1641 4.16406 34.0625 4.47656 33.9062 4.75781C33.8438 4.88281 33.7891 4.97656 33.7422 5.03906C33.6953 5.10156 33.6406 5.24219 33.5781 5.46094C33.5156 5.60156 33.4375 5.76562 33.3438 5.95312C33.25 6.14062 33.1484 6.32031 33.0391 6.49219C32.9297 6.64844 32.8203 6.78906 32.7109 6.91406C32.6016 7.02344 32.5 7.07812 32.4062 7.07812C32 7.07812 31.7188 6.88281 31.5625 6.49219C31.4219 6.08594 31.3516 5.60938 31.3516 5.0625C31.3516 4.84375 31.3594 4.61719 31.375 4.38281C31.4062 4.14844 31.4375 3.92188 31.4688 3.70312C31.5 3.46875 31.5781 3.29688 31.7031 3.1875C31.8281 3.07812 31.9297 2.90625 32.0078 2.67188C32.0859 2.46875 32.1406 2.27344 32.1719 2.08594C32.2031 1.88281 32.2344 1.69531 32.2656 1.52344C32.3125 1.35156 32.3594 1.20312 32.4062 1.07812C32.4688 0.9375 32.5625 0.820312 32.6875 0.726562C32.7812 0.664062 32.8906 0.609375 33.0156 0.5625C33.1562 0.515625 33.2969 0.484375 33.4375 0.46875C33.5938 0.4375 33.7422 0.414062 33.8828 0.398438C34.0391 0.382812 34.1641 0.375 34.2578 0.375C34.2578 0.390625 34.3281 0.367188 34.4688 0.304688C34.6094 0.226562 34.7656 0.1875 34.9375 0.1875C34.9688 0.1875 35.0703 0.21875 35.2422 0.28125C35.4297 0.328125 35.5703 0.421875 35.6641 0.5625Z" fill="white"/>
</svg>
