<svg width="1600" height="833" viewBox="0 0 1600 833" fill="none" xmlns="http://www.w3.org/2000/svg">
<rect x="0.065918" width="1600" height="820" fill="url(#paint0_linear_574_252)"/>
<rect x="-181.436" y="236.867" width="1838.81" height="605.318" transform="rotate(-10.4262 -181.436 236.867)" fill="url(#paint1_linear_574_252)"/>
<rect x="669.066" y="525.328" width="978.21" height="314.794" transform="rotate(-12.2186 669.066 525.328)" fill="url(#paint2_linear_574_252)"/>
<path opacity="0.1" d="M1428.86 645.624C1429.2 644.78 1430.39 644.78 1430.72 645.624L1434.47 655.123C1434.57 655.381 1434.77 655.585 1435.03 655.687L1444.53 659.433C1445.38 659.766 1445.38 660.961 1444.53 661.294L1435.03 665.04C1434.77 665.142 1434.57 665.346 1434.47 665.603L1430.72 675.103C1430.39 675.947 1429.2 675.947 1428.86 675.103L1425.12 665.603C1425.01 665.346 1424.81 665.142 1424.55 665.04L1415.05 661.294C1414.21 660.961 1414.21 659.766 1415.05 659.433L1424.55 655.687C1424.81 655.585 1425.01 655.381 1425.12 655.123L1428.86 645.624Z" fill="#0F172A"/>
<path opacity="0.1" d="M713.233 143.163C713.566 142.319 714.761 142.319 715.094 143.163L718.84 152.662C718.942 152.92 719.146 153.124 719.404 153.226L728.903 156.972C729.747 157.305 729.747 158.5 728.903 158.833L719.404 162.579C719.146 162.681 718.942 162.885 718.84 163.143L715.094 172.642C714.761 173.486 713.566 173.486 713.233 172.642L709.487 163.143C709.385 162.885 709.181 162.681 708.924 162.579L699.425 158.833C698.58 158.5 698.58 157.305 699.425 156.972L708.924 153.226C709.181 153.124 709.385 152.92 709.487 152.662L713.233 143.163Z" fill="#0F172A"/>
<path opacity="0.1" d="M831.233 693.324C831.566 692.479 832.761 692.479 833.094 693.324L836.84 702.823C836.942 703.08 837.146 703.284 837.404 703.386L846.903 707.132C847.747 707.465 847.747 708.66 846.903 708.993L837.404 712.739C837.146 712.841 836.942 713.045 836.84 713.303L833.094 722.802C832.761 723.646 831.566 723.646 831.233 722.802L827.487 713.303C827.385 713.045 827.181 712.841 826.924 712.739L817.425 708.993C816.58 708.66 816.58 707.465 817.425 707.132L826.924 703.386C827.181 703.284 827.385 703.08 827.487 702.823L831.233 693.324Z" fill="#0F172A"/>
<defs>
<linearGradient id="paint0_linear_574_252" x1="1084.33" y1="5.83729e-05" x2="-1.82642" y2="205.239" gradientUnits="userSpaceOnUse">
<stop stop-color="#2E43F0"/>
<stop offset="1" stop-color="#6677FF"/>
</linearGradient>
<linearGradient id="paint1_linear_574_252" x1="1469.04" y1="340.929" x2="-307.083" y2="522.366" gradientUnits="userSpaceOnUse">
<stop stop-color="#001DFA"/>
<stop offset="1" stop-color="#8996FF"/>
</linearGradient>
<linearGradient id="paint2_linear_574_252" x1="1442.19" y1="540.834" x2="644.466" y2="642.52" gradientUnits="userSpaceOnUse">
<stop stop-color="#4581F7" stop-opacity="0.61"/>
<stop offset="0.862691" stop-color="#4581F7" stop-opacity="0"/>
</linearGradient>
</defs>
</svg>
