<svg width="56" height="58" viewBox="0 0 56 58" fill="none" xmlns="http://www.w3.org/2000/svg">
<path d="M34.4624 49.8651V51.5305C34.4624 52.8558 33.4889 53.9583 32.2222 54.1459L31.8117 55.6589C31.5889 56.4799 30.85 57.0545 29.9938 57.0545H25.9241C25.0679 57.0545 24.329 56.4799 24.1062 55.6589L23.7074 54.1459C22.429 53.9465 21.4556 52.8558 21.4556 51.5188V49.8533C21.4556 48.962 22.171 48.2465 23.0624 48.2465H32.8556C33.7469 48.2583 34.4624 48.9737 34.4624 49.8651ZM42.0037 27.417C42.0037 31.2052 40.5025 34.6416 38.063 37.1632C36.2099 39.0867 35.0136 41.5379 34.6148 44.1533C34.4389 45.2793 33.4654 46.112 32.3161 46.112H23.6019C22.4642 46.112 21.4791 45.291 21.3149 44.1651C20.9044 41.5496 19.6963 39.0632 17.8433 37.1515C15.4507 34.6651 13.9612 31.2873 13.926 27.5694C13.8439 19.7583 20.0599 13.4368 27.871 13.3781C35.6704 13.3195 42.0037 19.6293 42.0037 27.417ZM29.5482 18.9139C29.5482 18.046 28.8445 17.3306 27.9648 17.3306C22.3821 17.3306 17.8315 21.8694 17.8315 27.4639C17.8315 28.3318 18.5352 29.0472 19.4149 29.0472C20.2828 29.0472 20.9982 28.3435 20.9982 27.4639C20.9982 23.617 24.1297 20.4972 27.9648 20.4972C28.8445 20.4972 29.5482 19.7935 29.5482 18.9139ZM27.9648 8.76886C28.8327 8.76886 29.5482 8.06516 29.5482 7.18553V1.63802C29.5482 0.770118 28.8445 0.0546875 27.9648 0.0546875C27.0852 0.0546875 26.3815 0.758389 26.3815 1.63802V7.18553C26.3815 8.06516 27.0969 8.76886 27.9648 8.76886ZM9.32846 27.4052C9.32846 26.5373 8.62476 25.8219 7.74513 25.8219H2.19762C1.32972 25.8219 0.614288 26.5256 0.614288 27.4052C0.614288 28.2731 1.31799 28.9886 2.19762 28.9886H7.74513C8.62476 28.9886 9.32846 28.2849 9.32846 27.4052ZM53.7321 25.8219H48.1845C47.3166 25.8219 46.6012 26.5256 46.6012 27.4052C46.6012 28.2731 47.3049 28.9886 48.1845 28.9886H53.7321C54.6 28.9886 55.3154 28.2849 55.3154 27.4052C55.3154 26.5373 54.6117 25.8219 53.7321 25.8219ZM12.5538 40.5879L8.62476 44.5169C8.00316 45.1385 8.00316 46.1354 8.62476 46.757C8.9297 47.062 9.34019 47.2144 9.73896 47.2144C10.1377 47.2144 10.5482 47.062 10.8532 46.757L14.7822 42.828C15.4038 42.2064 15.4038 41.2095 14.7822 40.5879C14.1723 39.9663 13.1636 39.9663 12.5538 40.5879ZM42.2617 14.6917C42.6605 14.6917 43.071 14.5392 43.3759 14.2343L47.3049 10.3053C47.9265 9.68368 47.9265 8.68676 47.3049 8.06516C46.6833 7.44356 45.6864 7.44356 45.0648 8.06516L41.1358 11.9942C40.5142 12.6158 40.5142 13.6127 41.1358 14.2343C41.4525 14.5392 41.8512 14.6917 42.2617 14.6917ZM12.5538 14.2226C12.8587 14.5275 13.2692 14.68 13.668 14.68C14.0667 14.68 14.4772 14.5275 14.7822 14.2226C15.4038 13.6009 15.4038 12.604 14.7822 11.9824L10.8532 8.05343C10.2315 7.43183 9.23464 7.43183 8.61303 8.05343C7.99143 8.67504 7.99143 9.67195 8.61303 10.2936L12.5538 14.2226ZM43.3759 40.5879C42.7543 39.9663 41.7574 39.9663 41.1358 40.5879C40.5142 41.2095 40.5142 42.2064 41.1358 42.828L45.0648 46.757C45.3697 47.062 45.7802 47.2144 46.179 47.2144C46.5778 47.2144 46.9882 47.062 47.2932 46.757C47.9148 46.1354 47.9148 45.1385 47.2932 44.5169L43.3759 40.5879Z" fill="white"/>
</svg>
