<svg width="48" height="58" viewBox="0 0 48 58" fill="none" xmlns="http://www.w3.org/2000/svg">
<path d="M17.5239 10.5962C18.4452 10.5962 19.1922 9.84931 19.1922 8.92799V1.78054C19.104 -0.43289 15.943 -0.431222 15.8557 1.78054V8.9281C15.8557 9.84942 16.6026 10.5962 17.5239 10.5962Z" fill="#1F37FF"/>
<path d="M9.19688 10.1093C9.84817 10.7607 10.9046 10.7609 11.5561 10.1093C12.2076 9.45778 12.2076 8.40155 11.5561 7.75005L9.76932 5.96324C9.11792 5.31173 8.06158 5.31173 7.41008 5.96324C6.75857 6.61475 6.75857 7.67097 7.41008 8.32248L9.19688 10.1093Z" fill="#1F37FF"/>
<path d="M25.8512 10.1093L27.638 8.32248C28.2895 7.67097 28.2895 6.61475 27.638 5.96324C26.9866 5.31173 25.9302 5.31173 25.2787 5.96324L23.4919 7.75005C22.8404 8.40155 22.8404 9.45778 23.4919 10.1093C24.1432 10.7607 25.1997 10.7609 25.8512 10.1093Z" fill="#1F37FF"/>
<path d="M37.6633 25.5945C38.6159 24.642 38.6173 23.0985 37.6633 22.1447C36.7105 21.1919 35.1673 21.1908 34.2133 22.1447L28.4041 27.9539C27.453 28.905 27.453 30.4527 28.4041 31.4038C29.3556 32.3545 30.9034 32.3546 31.8542 31.4038L37.6629 25.5951C37.663 25.5947 37.6631 25.5946 37.6633 25.5945Z" fill="#1F37FF"/>
<path d="M37.6631 37.2115L42.0201 32.8544H42.0202C42.9729 31.9018 42.9743 30.3584 42.0202 29.4045C41.0677 28.4518 39.5243 28.4504 38.5704 29.4045L34.2132 33.7616C33.2623 34.7125 33.2625 36.2602 34.2135 37.2119C35.166 38.1641 36.7092 38.1653 37.6631 37.2115Z" fill="#1F37FF"/>
<path d="M46.3772 36.6662C45.4331 35.7221 43.8891 35.7039 42.9275 36.6654L40.0231 39.5699C39.069 40.5242 39.0704 42.0674 40.0225 43.0195C40.9868 43.9851 42.5334 43.9598 43.4717 43.0203L46.3765 40.1154L46.3774 40.1146C47.3171 39.176 47.3414 37.6291 46.3772 36.6662Z" fill="#1F37FF"/>
<path d="M35.972 41.2963C35.972 41.2851 35.9728 41.274 35.9728 41.2627C34.4189 41.2743 32.9524 40.6702 31.854 39.5719C30.7189 38.4362 30.1568 36.9417 30.1663 35.4504C28.6732 35.4618 27.1811 34.8971 26.0452 33.7631C23.7928 31.5107 23.7928 27.8463 26.0448 25.5943L42.0203 9.61982C42.9311 8.70784 43.0073 7.15548 42.0268 6.17499C41.2105 5.35889 39.6619 5.0784 38.5705 6.16988L17.9664 26.7739L18.2389 27.0463C22.8932 31.7007 22.8932 39.2737 18.2389 43.928C17.5874 44.5797 16.5309 44.5794 15.8796 43.928C15.2281 43.2766 15.2281 42.2203 15.8796 41.5688C19.2329 38.2154 19.2329 32.759 15.8796 29.4056C15.8796 29.4056 14.4269 27.9521 14.4268 27.9517C14.2102 27.7346 14.0531 27.4587 13.9817 27.1493L12.0727 18.8773C11.4849 16.3298 8.78824 14.8532 6.315 15.7609C5.65738 16.0022 5.22074 16.629 5.22141 17.3295L5.24421 40.9326L0.953474 45.2215C0.301967 45.873 0.301967 46.9292 0.953474 47.5807L9.93978 56.567C10.2526 56.8799 10.6769 57.0556 11.1195 57.0556H27.5777C28.777 57.0556 29.9052 56.5879 30.7543 55.7389L39.7684 46.7251C38.9858 46.4404 38.2683 45.9859 37.6625 45.3792C36.5726 44.2894 35.972 42.8391 35.972 41.2963Z" fill="#1F37FF"/>
</svg>
