<svg width="58" height="58" viewBox="0 0 58 58" fill="none" xmlns="http://www.w3.org/2000/svg">
<path d="M28.9712 16.4316C25.4973 16.4316 22.6711 19.2577 22.6711 22.7317C22.6711 26.2057 25.4973 29.032 28.9712 29.032C32.4442 29.032 35.2698 26.2057 35.2698 22.7317C35.2696 19.2577 32.4442 16.4316 28.9712 16.4316Z" fill="#1F37FF"/>
<path d="M57.4754 25.3896C57.4754 23.8445 56.3152 22.5436 54.7765 22.3636L51.5409 21.9854C51.0814 20.3356 50.4254 18.7221 49.5878 17.1807L51.5795 14.6636C52.5361 13.4555 52.4385 11.7153 51.3502 10.6137L47.0795 6.34326C46.5037 5.76769 45.7393 5.45064 44.9268 5.45064C44.2421 5.45064 43.5682 5.68613 43.0289 6.11357L40.5985 8.04C39.0028 7.13198 37.2956 6.4169 35.5146 5.91031L35.1472 2.75415C34.9659 1.21501 33.6646 0.0546875 32.1203 0.0546875H26.0638C24.5184 0.0546875 23.2178 1.21501 23.0381 2.75415L22.6702 5.90974C20.8441 6.42665 19.0883 7.16887 17.4426 8.11943L14.9127 6.11357C14.3766 5.68839 13.7048 5.45432 13.0212 5.45432C12.2093 5.45432 11.4432 5.76896 10.8614 6.34269L6.58168 10.6236C5.48821 11.7173 5.38926 13.4589 6.35128 14.674L8.4862 17.3745C7.65917 18.9187 7.01533 20.5486 6.56853 22.2288L3.16416 22.6172C1.62573 22.7981 0.465692 24.099 0.465692 25.6428L0.464844 31.6995C0.465975 33.244 1.62686 34.5448 3.16572 34.7256L6.78479 35.1459C7.25407 36.6781 7.87571 38.1542 8.63603 39.5432L6.35227 42.4249C5.3952 43.6328 5.49315 45.3734 6.58196 46.4759L10.8623 50.7558C11.4378 51.3313 12.2021 51.6484 13.0146 51.6484C13.6994 51.6484 14.3735 51.4129 14.9129 50.9854L17.7719 48.7229C19.2292 49.5342 20.7712 50.1866 22.365 50.666L22.7943 54.3556C22.9751 55.8946 24.2762 57.0552 25.8208 57.0552H31.8774C33.4217 57.0552 34.7225 55.8946 34.9034 54.3546L35.3125 50.8163C37.028 50.3432 38.6922 49.6703 40.2687 48.8125L43.0284 50.996C43.5654 51.4211 44.2376 51.6553 44.9212 51.6553C45.7331 51.6553 46.499 51.3404 47.0797 50.7664L51.3604 46.4854C52.4539 45.3915 52.5524 43.6502 51.5902 42.4363L49.4487 39.7193C50.3238 38.1571 51.0085 36.5224 51.4878 34.8504L54.7766 34.4725C56.3158 34.2908 57.4764 32.9895 57.4764 31.4452L57.4754 25.3896ZM22.5147 38.9327V43.3744C21.6465 42.9948 20.8181 42.5412 20.0371 42.0216L22.5147 38.9327ZM35.4258 38.9324L37.9035 42.0216C37.1226 42.5415 36.2939 42.9949 35.4258 43.3744V38.9324ZM35.7984 30.9477C35.3039 30.233 34.4888 29.8064 33.6183 29.8064C33.587 29.8064 24.3529 29.8064 24.3223 29.8064C23.452 29.8064 22.6368 30.233 22.1496 30.9374L16.2547 38.5268C14.0943 35.778 12.8044 32.3141 12.8044 28.5547C12.8044 19.6407 20.0565 12.3887 28.9705 12.3887C37.8844 12.3887 45.1366 19.6408 45.1366 28.5547C45.1366 32.3142 43.8466 35.7781 41.6861 38.5269L35.7984 30.9477Z" fill="#1F37FF"/>
</svg>
