<svg width="58" height="51" viewBox="0 0 58 51" fill="none" xmlns="http://www.w3.org/2000/svg">
<path d="M30.6347 1.87891C30.6347 0.956535 29.8872 0.208984 28.9648 0.208984C28.0424 0.208984 27.2949 0.956535 27.2949 1.87891V9.03348C27.2949 9.95585 28.0424 10.7034 28.9648 10.7034C29.8872 10.7034 30.6347 9.95585 30.6347 9.03348V1.87891Z" fill="#1F37FF"/>
<path d="M20.6296 12.0045C20.9553 12.3302 21.3828 12.4937 21.8103 12.4937C22.2373 12.4937 22.6648 12.3307 22.9909 12.0045C23.6428 11.3522 23.6428 10.295 22.9909 9.64269L19.4132 6.06541C18.7613 5.41309 17.7042 5.41309 17.0518 6.06541C16.3995 6.71772 16.3995 7.7749 17.0518 8.42722L20.6296 12.0045Z" fill="#1F37FF"/>
<path d="M36.1194 12.4933C36.5469 12.4933 36.9743 12.3302 37.3001 12.0041L40.8778 8.42678C41.5297 7.7749 41.5297 6.71728 40.8778 6.06541C40.2255 5.41309 39.1683 5.41309 38.516 6.06541L34.9387 9.64269C34.2864 10.295 34.2864 11.3522 34.9387 12.0041C35.2648 12.3302 35.6923 12.4933 36.1194 12.4933Z" fill="#1F37FF"/>
<path d="M24.1338 16.3431C24.1164 16.3574 24.0999 16.3714 24.0842 16.3844L16.8644 22.5735C16.1956 23.1467 15.3406 23.4629 14.4587 23.4629H9.28759C4.41482 23.4629 0.464844 27.4059 0.464844 32.2856V48.386C0.464844 49.3079 1.21239 50.0559 2.13477 50.0559H16.4439C17.3667 50.0559 18.1138 49.3075 18.1138 48.386V33.0558L26.6113 25.7721C27.0453 25.4002 27.2949 24.8571 27.2949 24.2857V17.8743C27.2949 16.2435 25.4006 15.3159 24.1338 16.3431Z" fill="#1F37FF"/>
<path d="M48.6421 23.4629H43.471C42.5891 23.4629 41.7341 23.1467 41.0653 22.5731L33.8455 16.3844C33.8298 16.3714 33.8133 16.3574 33.7959 16.3431C32.5291 15.3159 30.6348 16.2435 30.6348 17.8743V24.2857C30.6348 24.8571 30.8844 25.4002 31.3184 25.7721L39.8159 33.0558V48.3856C39.8159 49.3075 40.563 50.0555 41.4858 50.0555H55.7949C56.7173 50.0555 57.4649 49.3079 57.4649 48.3856V32.2856C57.4649 27.4059 53.5149 23.4629 48.6421 23.4629Z" fill="#1F37FF"/>
<path d="M16.3252 16.4245C16.3252 12.545 13.1689 9.38867 9.28937 9.38867C5.40984 9.38867 2.25352 12.545 2.25352 16.4245C2.25352 20.3045 5.40984 23.4608 9.28937 23.4608C13.1689 23.4608 16.3252 20.3045 16.3252 16.4245Z" fill="#1F37FF"/>
<path d="M55.6761 16.4245C55.6761 12.545 52.5198 9.38867 48.6403 9.38867C44.7608 9.38867 41.6044 12.545 41.6044 16.4245C41.6044 20.3045 44.7608 23.4608 48.6403 23.4608C52.5198 23.4608 55.6761 20.3045 55.6761 16.4245Z" fill="#1F37FF"/>
</svg>
